<mxfile host="app.diagrams.net" modified="2024-05-14T16:25:53.070Z" agent="Mozilla/5.0 (Macintosh; Intel Mac OS X 10_15_7) AppleWebKit/605.1.15 (KHTML, like Gecko) Version/16.6 Safari/605.1.15" version="24.4.0" etag="YxqiI7QBFdWqLKSsmt0w" type="github">
  <diagram name="Page-1" id="Gvis0l_EWGqzDAjAYZv0">
    <mxGraphModel>
      <root>
        <mxCell id="0" />
        <mxCell id="1" parent="0" />
      </root>
    </mxGraphModel>
  </diagram>
</mxfile>
